<svg xmlns="http://www.w3.org/2000/svg" version="1.1" xmlns:xlink="http://www.w3.org/1999/xlink" xmlns:svgjs="http://svgjs.dev/svgjs" width="50" height="50"><svg width="50" height="50" viewBox="0 0 50 50" fill="none" xmlns="http://www.w3.org/2000/svg">
<rect width="50" height="50" rx="10" fill="#2C2C2C"></rect>
<path d="M25 29.25C27.3472 29.25 29.25 27.3472 29.25 25C29.25 22.6528 27.3472 20.75 25 20.75C22.6528 20.75 20.75 22.6528 20.75 25C20.75 27.3472 22.6528 29.25 25 29.25Z" stroke="#FCF0EC" stroke-width="4" stroke-linecap="round" stroke-linejoin="round"></path>
<path d="M25 31.375C25 32.6359 24.6261 33.8684 23.9256 34.9168C23.2251 35.9651 22.2295 36.7822 21.0646 37.2647C19.8997 37.7472 18.6179 37.8735 17.3813 37.6275C16.1447 37.3815 15.0088 36.7744 14.1172 35.8828C13.2256 34.9912 12.6185 33.8553 12.3725 32.6187C12.1265 31.3821 12.2528 30.1003 12.7353 28.9354C13.2178 27.7705 14.0349 26.7749 15.0832 26.0744C16.1316 25.3739 17.3641 25 18.625 25C17.3641 25 16.1316 24.6261 15.0832 23.9256C14.0349 23.2251 13.2178 22.2295 12.7353 21.0646C12.2528 19.8997 12.1265 18.6179 12.3725 17.3813C12.6185 16.1447 13.2256 15.0088 14.1172 14.1172C15.0088 13.2256 16.1447 12.6185 17.3813 12.3725C18.6179 12.1265 19.8997 12.2528 21.0646 12.7353C22.2295 13.2178 23.2251 14.0349 23.9256 15.0832C24.6261 16.1316 25 17.3641 25 18.625C25 17.3641 25.3739 16.1316 26.0744 15.0832C26.7749 14.0349 27.7705 13.2178 28.9354 12.7353C30.1003 12.2528 31.3821 12.1265 32.6187 12.3725C33.8553 12.6185 34.9912 13.2256 35.8828 14.1172C36.7744 15.0088 37.3815 16.1447 37.6275 17.3813C37.8735 18.6179 37.7472 19.8997 37.2647 21.0646C36.7822 22.2295 35.9651 23.2251 34.9168 23.9256C33.8684 24.6261 32.6359 25 31.375 25C32.6359 25 33.8684 25.3739 34.9168 26.0744C35.9651 26.7749 36.7822 27.7705 37.2647 28.9354C37.7472 30.1003 37.8735 31.3821 37.6275 32.6187C37.3815 33.8553 36.7744 34.9912 35.8828 35.8828C34.9912 36.7744 33.8553 37.3815 32.6187 37.6275C31.3821 37.8735 30.1003 37.7472 28.9354 37.2647C27.7705 36.7822 26.7749 35.9651 26.0744 34.9168C25.3739 33.8684 25 32.6359 25 31.375Z" stroke="#FCF0EC" stroke-width="4" stroke-linecap="round" stroke-linejoin="round"></path>
<path d="M25 18.625V20.75" stroke="#FCF0EC" stroke-width="4" stroke-linecap="round" stroke-linejoin="round"></path>
<path d="M18.625 25H20.75" stroke="#FCF0EC" stroke-width="4" stroke-linecap="round" stroke-linejoin="round"></path>
<path d="M31.375 25H29.25" stroke="#FCF0EC" stroke-width="4" stroke-linecap="round" stroke-linejoin="round"></path>
<path d="M25 31.375V29.25" stroke="#FCF0EC" stroke-width="4" stroke-linecap="round" stroke-linejoin="round"></path>
<path d="M19.3334 19.3334L21.9967 21.9967" stroke="#FCF0EC" stroke-width="4" stroke-linecap="round" stroke-linejoin="round"></path>
<path d="M28.0033 21.9967L30.6666 19.3334" stroke="#FCF0EC" stroke-width="4" stroke-linecap="round" stroke-linejoin="round"></path>
<path d="M19.3334 30.6666L21.9967 28.0033" stroke="#FCF0EC" stroke-width="4" stroke-linecap="round" stroke-linejoin="round"></path>
<path d="M28.0033 28.0033L30.6666 30.6666" stroke="#FCF0EC" stroke-width="4" stroke-linecap="round" stroke-linejoin="round"></path>
</svg><style>@media (prefers-color-scheme: light) { :root { filter: none; } }
@media (prefers-color-scheme: dark) { :root { filter: none; } }
</style></svg>